<?xml version="1.0" encoding="UTF-8" standalone="no"?>
<svg
   xmlns:dc="http://purl.org/dc/elements/1.1/"
   xmlns:cc="http://creativecommons.org/ns#"
   xmlns:rdf="http://www.w3.org/1999/02/22-rdf-syntax-ns#"
   xmlns:svg="http://www.w3.org/2000/svg"
   xmlns="http://www.w3.org/2000/svg"
   xmlns:sodipodi="http://sodipodi.sourceforge.net/DTD/sodipodi-0.dtd"
   xmlns:inkscape="http://www.inkscape.org/namespaces/inkscape"
   width="1264.5176"
   height="1714.5535"
   viewBox="6.527 4.399 273.62975 370.9649"
   version="1.1"
   id="svg16"
   sodipodi:docname="java.svg"
   inkscape:version="0.92.3 (2405546, 2018-03-11)">
  <metadata
     id="metadata22">
    <rdf:RDF>
      <cc:Work
         rdf:about="">
        <dc:format>image/svg+xml</dc:format>
        <dc:type
           rdf:resource="http://purl.org/dc/dcmitype/StillImage" />
      </cc:Work>
    </rdf:RDF>
  </metadata>
  <defs
     id="defs20" />
  <sodipodi:namedview
     pagecolor="#ffffff"
     bordercolor="#666666"
     borderopacity="1"
     objecttolerance="10"
     gridtolerance="10"
     guidetolerance="10"
     inkscape:pageopacity="0"
     inkscape:pageshadow="2"
     inkscape:window-width="1920"
     inkscape:window-height="1056"
     id="namedview18"
     showgrid="false"
     inkscape:zoom="0.26700352"
     inkscape:cx="-600.96941"
     inkscape:cy="388.74555"
     inkscape:window-x="1600"
     inkscape:window-y="0"
     inkscape:window-maximized="1"
     inkscape:current-layer="svg16" />
  <path
     d="m 94.652761,291.28872 c 0,0 -14.178,8.245 10.089999,11.035 29.4,3.354 44.426,2.873 76.825,-3.259 0,0 8.518,5.341 20.414,9.967 -72.63,31.128 -164.375999,-1.803 -107.328999,-17.743 m -8.875,-40.62 c 0,0 -15.902,11.771 8.384,14.283 31.405999,3.24 56.207999,3.505 99.124999,-4.759 0,0 5.937,6.018 15.271,9.309 -87.815,25.678 -185.623999,2.025 -122.779999,-18.833"
     id="path4"
     inkscape:connector-curvature="0"
     style="fill:#5382a1" />
  <path
     d="m 160.59676,181.76372 c 17.896,20.604 -4.701,39.146 -4.701,39.146 0,0 45.439,-23.458 24.571,-52.833 -19.491,-27.395 -34.438,-41.005 46.479,-87.934001 0.001,-0.001 -127.012999,31.721001 -66.349,101.621001"
     id="path6"
     inkscape:connector-curvature="0"
     style="fill:#e76f00" />
  <path
     d="m 256.65576,321.33372 c 0,0 10.492,8.646 -11.555,15.333 -41.923,12.7 -174.487999,16.535 -211.313999,0.507 -13.238,-5.76 11.587,-13.752 19.396,-15.429 8.144,-1.766 12.798,-1.437 12.798,-1.437 -14.722,-10.371 -95.157,20.363 -40.857,29.166 148.083999,24.015 269.943999,-10.814 231.531999,-28.14 m -155.185,-112.752 c 0,0 -67.430999,16.016 -23.878999,21.832 18.389,2.462 55.046999,1.905 89.191999,-0.956 27.906,-2.354 55.928,-7.358 55.928,-7.358 0,0 -9.84,4.214 -16.959,9.074 -68.475,18.01 -200.7559993,9.631 -162.673999,-8.79 32.206,-15.568 58.391999,-13.802 58.391999,-13.802 m 120.963,67.614 c 69.608,-36.171 37.425,-70.932 14.96,-66.248 -5.506,1.146 -7.961,2.139 -7.961,2.139 0,0 2.045,-3.202 5.947,-4.588 44.441,-15.624 78.619,46.081 -14.346,70.521 0,0 1.079,-0.962 1.4,-1.824"
     id="path8"
     inkscape:connector-curvature="0"
     style="fill:#5382a1" />
  <path
     d="m 180.46676,4.3637188 c 0,0 38.55,38.5620002 -36.563,97.8620012 -60.232999,47.567 -13.735,74.689 -0.025,105.678 -35.158,-31.723 -60.959999,-59.647 -43.65,-85.637 25.406,-38.151001 95.792,-56.648001 80.238,-117.9030012"
     id="path10"
     inkscape:connector-curvature="0"
     style="fill:#e76f00" />
  <path
     d="m 108.31076,374.21072 c 66.815,4.277 169.417,-2.373 171.846,-33.987 0,0 -4.67,11.984 -55.219,21.503 -57.027,10.731 -127.363999,9.479 -169.080999,2.601 0.002,-0.002 8.541,7.067 52.453999,9.883"
     id="path12"
     inkscape:connector-curvature="0"
     style="fill:#5382a1" />
</svg>
